<?xml version="1.0" encoding="utf-8"?>
<!-- Generator: Adobe Illustrator 22.1.0, SVG Export Plug-In . SVG Version: 6.00 Build 0)  -->
<svg version="1.1" id="Layer_1" xmlns="http://www.w3.org/2000/svg" xmlns:xlink="http://www.w3.org/1999/xlink" x="0px" y="0px"
	 viewBox="0 0 24 24" style="enable-background:new 0 0 24 24;" xml:space="preserve">
<style type="text/css">
	.st0{fill:none;stroke:#000000;stroke-width:2;stroke-linecap:round;stroke-linejoin:round;}
</style>
<path class="st0" d="M13.6,7.9v3.7V7.9c0-0.9,0.7-1.6,1.6-1.6c0.9,0,1.6,0.7,1.6,1.6v4.9c0,0,0-0.5,0-1.5s0.7-1.6,1.6-1.6
	s1.6,0.7,1.6,1.6c0,0,0,4.8,0,6.8S18.2,22,16.8,22c-1.5,0-8.5,0-9.5,0c0-2.2-3.2-4.2-3.2-6.9c0-0.8,0-4,0-4c0-0.9,0.7-1.6,1.6-1.6
	s1.6,0.7,1.6,1.6v3.2V3.6C7.2,2.7,8,2,8.8,2s1.6,0.7,1.6,1.6v8.1V7.9c0-0.9,0.7-1.6,1.6-1.6S13.6,7.1,13.6,7.9"/>
</svg>
